<svg id="svg" version="1.1" xmlns="http://www.w3.org/2000/svg" xmlns:xlink="http://www.w3.org/1999/xlink" width="400" height="456.59999999999997" viewBox="0, 0, 400,456.59999999999997"><g id="svgg"><path id="path0" d="M241.494 52.761 C 240.075 55.257,238.492 58.020,237.977 58.900 C 237.462 59.780,235.245 63.650,233.050 67.500 C 230.855 71.350,227.098 77.920,224.701 82.100 C 222.304 86.280,220.118 90.105,219.843 90.600 C 219.567 91.095,218.306 93.300,217.040 95.500 C 215.774 97.700,214.513 99.905,214.237 100.400 C 213.962 100.895,212.339 103.730,210.631 106.700 C 208.923 109.670,207.196 112.685,206.794 113.400 C 206.391 114.115,204.833 116.846,203.331 119.470 C 201.829 122.093,200.600 124.264,200.600 124.293 C 200.600 124.359,203.487 129.380,207.503 136.300 C 208.589 138.170,209.807 140.285,210.211 141.000 C 210.614 141.715,211.394 143.065,211.942 144.000 C 212.491 144.935,213.957 147.455,215.199 149.600 C 216.442 151.745,217.956 154.355,218.564 155.400 C 219.172 156.445,219.856 157.678,220.085 158.141 C 220.633 159.251,220.770 159.216,221.630 157.747 C 222.683 155.947,237.571 131.044,238.756 129.100 C 240.163 126.791,243.693 120.865,243.914 120.439 C 244.150 119.985,244.161 119.992,244.641 120.839 C 244.909 121.313,245.652 122.600,246.293 123.700 C 246.933 124.800,248.670 127.815,250.151 130.400 C 251.633 132.985,253.139 135.595,253.497 136.200 C 254.161 137.322,255.619 139.843,259.106 145.900 C 261.635 150.291,262.826 152.358,265.158 156.400 C 266.205 158.215,267.217 159.976,267.407 160.313 C 267.596 160.650,268.452 162.135,269.309 163.613 C 270.165 165.091,271.693 167.740,272.705 169.500 C 273.717 171.260,275.197 173.825,275.994 175.200 C 276.791 176.575,278.454 179.455,279.690 181.600 C 286.071 192.679,288.894 197.572,290.765 200.800 C 292.862 204.416,294.866 207.906,295.592 209.206 C 295.993 209.924,296.642 211.049,297.035 211.706 C 297.744 212.893,298.966 215.004,302.706 221.500 C 304.977 225.444,307.199 229.301,308.757 232.000 C 310.418 234.879,314.228 241.499,316.354 245.200 C 317.396 247.015,318.339 248.613,318.449 248.750 C 318.609 248.950,314.117 249.000,296.124 249.000 C 283.736 249.000,273.600 249.032,273.600 249.071 C 273.600 249.146,274.498 250.718,277.103 255.200 C 277.967 256.685,279.766 259.790,281.102 262.100 C 282.439 264.410,284.054 267.200,284.693 268.300 C 285.331 269.400,286.711 271.785,287.759 273.600 C 289.897 277.304,291.159 279.482,293.029 282.700 L 294.308 284.900 332.958 284.951 L 371.608 285.001 371.803 284.551 C 372.254 283.511,374.600 274.897,374.600 274.283 C 374.600 273.631,374.447 273.336,371.349 268.000 C 370.806 267.065,369.324 264.500,368.054 262.300 C 366.785 260.100,365.067 257.130,364.237 255.700 C 363.407 254.270,362.128 252.065,361.395 250.800 C 360.662 249.535,359.541 247.600,358.903 246.500 C 358.265 245.400,356.530 242.385,355.049 239.800 C 353.567 237.215,352.063 234.605,351.707 234.000 C 349.984 231.070,347.491 226.776,344.160 221.000 C 339.703 213.272,336.621 207.936,335.033 205.200 C 334.427 204.155,332.971 201.635,331.797 199.600 C 329.456 195.540,328.570 194.008,325.200 188.200 C 322.865 184.177,320.709 180.449,317.508 174.900 C 316.493 173.140,314.960 170.485,314.102 169.000 C 313.243 167.515,311.580 164.635,310.405 162.600 C 309.230 160.565,307.746 158.000,307.107 156.900 C 306.469 155.800,305.089 153.415,304.041 151.600 C 302.993 149.785,301.640 147.445,301.033 146.400 C 300.427 145.355,298.971 142.835,297.798 140.800 C 296.626 138.765,294.962 135.885,294.101 134.400 C 293.240 132.915,291.909 130.620,291.144 129.300 C 290.379 127.980,288.922 125.460,287.906 123.700 C 286.891 121.940,285.043 118.745,283.801 116.600 C 282.558 114.455,281.075 111.890,280.504 110.900 C 279.934 109.910,278.608 107.615,277.558 105.800 C 276.508 103.985,275.448 102.140,275.203 101.700 C 274.957 101.260,274.465 100.405,274.108 99.800 C 273.752 99.195,272.936 97.800,272.296 96.700 C 271.656 95.600,270.843 94.205,270.491 93.600 C 270.138 92.995,268.969 90.970,267.893 89.100 C 266.030 85.863,265.208 84.438,262.702 80.099 C 260.759 76.734,259.500 74.561,257.897 71.800 C 257.034 70.315,255.370 67.435,254.197 65.400 C 253.025 63.365,251.362 60.485,250.500 59.000 C 246.493 52.090,245.305 50.039,244.854 49.252 C 244.587 48.785,244.302 48.363,244.221 48.313 C 244.140 48.263,242.913 50.265,241.494 52.761 M174.227 170.120 C 174.010 170.596,170.620 176.600,167.801 181.500 C 167.168 182.600,165.459 185.615,164.002 188.200 C 162.545 190.785,160.836 193.800,160.203 194.900 C 159.570 196.000,157.344 199.915,155.257 203.600 C 153.169 207.285,149.927 213.000,148.052 216.300 C 146.177 219.600,144.393 222.750,144.088 223.300 C 143.784 223.850,142.662 225.830,141.596 227.700 C 139.147 231.996,135.304 238.771,131.953 244.700 C 130.523 247.230,128.835 250.200,128.202 251.300 C 127.569 252.400,125.859 255.415,124.402 258.000 C 122.945 260.585,121.236 263.600,120.602 264.700 C 119.969 265.800,117.718 269.760,115.601 273.500 C 113.483 277.240,111.176 281.306,110.475 282.536 C 109.774 283.765,109.200 284.823,109.200 284.886 C 109.200 284.949,139.080 285.000,175.600 285.000 C 223.141 285.000,242.000 284.938,242.000 284.783 C 242.000 284.664,241.084 282.932,239.965 280.933 C 238.846 278.935,237.506 276.535,236.988 275.600 C 236.469 274.665,235.691 273.270,235.258 272.500 C 234.825 271.730,233.089 268.625,231.400 265.600 C 229.711 262.575,228.002 259.515,227.601 258.800 C 227.200 258.085,225.803 255.587,224.496 253.249 L 222.121 248.997 196.280 249.049 C 170.494 249.100,170.440 249.099,170.650 248.700 C 170.766 248.480,172.164 246.005,173.756 243.200 C 175.348 240.395,177.462 236.660,178.453 234.900 C 181.629 229.259,182.040 228.533,183.095 226.700 C 183.664 225.710,184.584 224.090,185.139 223.100 C 187.641 218.633,189.944 214.566,190.833 213.044 C 191.365 212.133,191.800 211.344,191.800 211.290 C 191.800 211.236,192.011 210.856,192.270 210.446 C 192.528 210.036,193.385 208.546,194.173 207.136 L 195.607 204.572 193.733 201.436 C 192.702 199.711,190.540 196.072,188.930 193.350 C 187.319 190.627,184.682 186.172,183.070 183.450 C 179.341 177.153,179.085 176.721,176.800 172.840 C 174.819 169.477,174.618 169.263,174.227 170.120 " stroke="none" fill="#3c147c" fill-rule="evenodd"></path><path id="path1" d="M174.400 8.402 C 174.400 8.597,174.057 9.208,170.699 15.000 C 169.838 16.485,168.099 19.500,166.834 21.700 C 165.569 23.900,164.067 26.510,163.496 27.500 C 162.924 28.490,161.783 30.470,160.959 31.900 C 160.135 33.330,158.966 35.355,158.362 36.400 C 157.245 38.332,154.391 43.276,152.300 46.900 C 151.665 48.000,149.930 51.015,148.444 53.600 C 146.958 56.185,145.274 59.110,144.703 60.100 C 144.131 61.090,142.783 63.430,141.706 65.300 C 137.949 71.826,136.743 73.908,136.035 75.094 C 135.642 75.751,134.994 76.876,134.594 77.594 C 134.195 78.312,133.345 79.800,132.707 80.900 C 130.869 84.066,127.932 89.159,125.439 93.500 C 123.138 97.509,122.359 98.860,119.562 103.700 C 118.736 105.130,116.997 108.145,115.699 110.400 C 114.401 112.655,112.346 116.210,111.133 118.300 C 109.920 120.390,108.596 122.685,108.191 123.400 C 107.415 124.769,103.038 132.371,101.165 135.600 C 99.217 138.961,96.306 144.009,94.304 147.500 C 93.232 149.370,92.285 150.990,92.200 151.100 C 92.114 151.210,91.643 152.020,91.153 152.900 C 90.261 154.500,88.291 157.936,86.107 161.700 C 85.468 162.800,83.730 165.815,82.245 168.400 C 80.759 170.985,78.866 174.270,78.037 175.700 C 77.209 177.130,75.887 179.425,75.100 180.800 C 73.423 183.728,70.627 188.569,67.533 193.900 C 66.320 195.990,64.996 198.285,64.591 199.000 C 63.660 200.643,59.165 208.446,57.101 212.000 C 56.239 213.485,54.499 216.500,53.234 218.700 C 51.969 220.900,50.467 223.510,49.896 224.500 C 47.234 229.116,43.446 235.688,41.193 239.600 C 39.831 241.965,38.646 243.930,38.559 243.967 C 38.471 244.003,38.400 244.161,38.400 244.317 C 38.400 244.560,44.552 244.600,82.250 244.600 L 126.100 244.600 126.681 243.550 C 127.539 242.001,132.923 232.508,133.800 231.000 C 134.215 230.285,134.802 229.250,135.104 228.700 C 135.797 227.438,140.394 219.333,141.401 217.600 C 141.816 216.885,142.404 215.850,142.707 215.300 C 144.330 212.360,145.899 209.692,146.040 209.633 C 146.933 209.261,143.730 209.200,123.315 209.200 L 100.430 209.200 101.740 206.950 C 104.239 202.655,106.075 199.483,107.905 196.300 C 110.495 191.795,113.107 187.275,118.307 178.300 C 118.880 177.310,119.530 176.185,119.751 175.800 C 121.417 172.893,125.645 165.569,126.506 164.100 C 127.085 163.110,128.797 160.140,130.310 157.500 C 131.823 154.860,133.484 151.980,134.001 151.100 C 134.519 150.220,135.822 147.970,136.897 146.100 C 137.973 144.230,139.328 141.890,139.910 140.900 C 140.492 139.910,142.154 137.030,143.605 134.500 C 145.055 131.970,146.717 129.090,147.297 128.100 C 147.878 127.110,149.592 124.140,151.108 121.500 C 152.623 118.860,154.285 115.980,154.801 115.100 C 155.316 114.220,156.664 111.880,157.795 109.900 C 158.927 107.920,160.064 105.968,160.321 105.562 C 160.579 105.156,161.183 104.121,161.664 103.262 C 162.484 101.799,163.961 99.221,166.688 94.500 C 167.323 93.400,167.913 92.410,167.999 92.300 C 168.085 92.190,168.557 91.380,169.047 90.500 C 170.064 88.672,172.778 83.941,173.938 81.971 L 174.721 80.642 176.591 83.771 C 177.619 85.492,178.798 87.440,179.210 88.100 C 179.622 88.760,182.416 93.395,185.418 98.400 C 196.433 116.765,197.609 118.701,197.784 118.760 C 197.882 118.794,198.412 118.029,198.962 117.060 C 199.512 116.092,200.408 114.535,200.955 113.600 C 201.501 112.665,202.756 110.505,203.742 108.800 C 204.729 107.095,206.061 104.800,206.702 103.700 C 207.343 102.600,208.961 99.810,210.298 97.500 C 211.634 95.190,213.433 92.085,214.296 90.600 C 217.481 85.119,218.600 83.155,218.600 83.047 C 218.600 82.987,218.045 81.984,217.367 80.819 C 215.841 78.197,209.351 67.116,207.048 63.200 C 206.109 61.605,204.845 59.445,204.239 58.400 C 203.632 57.355,202.710 55.780,202.189 54.900 C 201.669 54.020,200.478 51.995,199.543 50.400 C 197.127 46.280,190.062 34.235,188.047 30.800 C 187.111 29.205,185.848 27.045,185.240 26.000 C 184.633 24.955,183.708 23.380,183.186 22.500 C 179.637 16.519,175.000 8.516,175.000 8.372 C 175.000 8.278,174.865 8.200,174.700 8.200 C 174.535 8.200,174.400 8.291,174.400 8.402 M240.787 134.250 C 239.007 137.248,237.038 140.555,236.410 141.600 C 235.781 142.645,234.475 144.850,233.506 146.500 C 232.537 148.150,231.229 150.355,230.599 151.400 C 227.697 156.217,223.602 163.163,223.486 163.465 C 223.405 163.676,223.763 164.519,224.457 165.750 C 226.354 169.116,231.891 179.010,233.047 181.100 C 234.083 182.974,235.345 185.230,241.128 195.549 C 242.407 197.832,243.875 200.465,244.389 201.400 C 246.481 205.198,248.466 208.715,248.652 208.950 C 248.809 209.150,243.721 209.200,223.349 209.200 L 197.849 209.200 196.450 211.650 C 195.681 212.998,193.364 217.115,191.302 220.800 C 189.240 224.485,187.171 228.175,186.704 229.000 C 186.237 229.825,185.020 231.985,184.001 233.800 C 182.981 235.615,181.716 237.865,181.189 238.800 C 180.661 239.735,179.728 241.400,179.114 242.500 L 177.998 244.500 244.232 244.550 C 280.661 244.578,310.509 244.558,310.562 244.505 C 310.614 244.453,310.556 244.287,310.431 244.138 C 310.307 243.988,309.859 243.244,309.435 242.483 C 309.012 241.722,307.241 238.625,305.500 235.600 C 303.759 232.575,302.006 229.515,301.604 228.800 C 301.202 228.085,299.630 225.340,298.110 222.700 C 296.590 220.060,294.969 217.225,294.507 216.400 C 294.046 215.575,292.240 212.425,290.496 209.400 C 288.751 206.375,286.996 203.315,286.597 202.600 C 285.837 201.240,275.708 183.563,273.704 180.100 C 273.067 179.000,272.169 177.425,271.708 176.600 C 270.538 174.503,266.166 166.864,264.899 164.700 C 263.852 162.914,259.603 155.494,258.198 153.000 C 257.796 152.285,255.141 147.650,252.300 142.700 C 249.458 137.750,246.510 132.597,245.748 131.250 C 244.985 129.903,244.285 128.800,244.192 128.800 C 244.098 128.800,242.566 131.253,240.787 134.250 " stroke="none" fill="#5c3414" fill-rule="evenodd"></path><path id="path2" d="M369.919 290.150 C 369.122 292.629,366.971 298.187,365.478 301.626 C 364.780 303.236,364.118 304.788,364.009 305.076 L 363.810 305.600 374.655 305.600 L 385.500 305.600 386.821 302.150 C 387.548 300.252,388.253 298.385,388.388 298.000 C 389.222 295.619,390.682 291.269,391.089 289.950 L 391.568 288.400 381.025 288.400 L 370.482 288.400 369.919 290.150 M362.058 309.350 C 361.987 309.543,361.701 310.060,361.422 310.500 C 360.850 311.402,360.000 313.147,360.000 313.420 C 360.000 313.722,381.912 313.653,382.139 313.350 C 382.343 313.078,384.000 309.311,384.000 309.118 C 384.000 308.771,362.187 309.001,362.058 309.350 M357.259 318.451 C 356.813 319.108,356.060 320.403,355.486 321.500 C 355.314 321.830,354.957 322.460,354.694 322.900 C 354.431 323.340,354.075 323.947,353.903 324.250 L 353.590 324.800 365.070 324.800 C 374.016 324.800,376.595 324.745,376.749 324.550 C 376.858 324.413,377.205 323.718,377.520 323.006 C 377.836 322.294,378.557 320.831,379.123 319.756 L 380.152 317.800 368.926 317.801 L 357.700 317.803 357.259 318.451 " stroke="none" fill="#fc0404" fill-rule="evenodd"></path><path id="path3" d="M173.267 92.150 C 172.589 93.333,171.561 95.110,170.982 96.100 C 170.403 97.090,169.149 99.250,168.197 100.900 C 167.244 102.550,165.955 104.778,165.332 105.850 C 164.710 106.922,163.693 108.678,163.074 109.750 C 162.454 110.822,161.005 113.320,159.854 115.300 C 158.703 117.280,157.240 119.800,156.603 120.900 C 155.965 122.000,154.658 124.250,153.698 125.900 C 152.738 127.550,151.409 129.845,150.745 131.000 C 150.080 132.155,149.289 133.505,148.987 134.000 C 148.684 134.495,148.238 135.260,147.996 135.700 C 147.754 136.140,146.381 138.525,144.945 141.000 C 140.168 149.234,136.774 155.079,135.655 157.000 C 135.047 158.045,134.212 159.485,133.800 160.200 C 133.388 160.915,132.579 162.310,132.002 163.300 C 129.588 167.444,128.728 168.926,126.198 173.300 C 124.735 175.830,123.116 178.620,122.601 179.500 C 122.086 180.380,120.780 182.630,119.698 184.500 C 117.835 187.722,117.177 188.854,114.697 193.100 C 110.676 199.985,108.339 204.089,108.253 204.418 C 108.155 204.795,108.524 204.801,128.497 204.751 L 148.841 204.700 152.146 199.100 C 153.963 196.020,156.083 192.420,156.856 191.100 C 158.789 187.800,159.689 186.274,163.109 180.500 C 164.737 177.750,166.490 174.780,167.005 173.900 C 170.054 168.681,174.454 161.276,174.587 161.138 C 174.762 160.957,175.314 161.824,179.391 168.700 C 180.956 171.340,182.937 174.670,183.792 176.100 C 184.647 177.530,186.813 181.175,188.606 184.200 C 190.398 187.225,192.644 191.005,193.598 192.600 C 194.551 194.195,196.212 196.985,197.288 198.800 C 198.364 200.615,199.605 202.708,200.045 203.450 L 200.846 204.800 221.144 204.800 C 240.113 204.800,241.434 204.778,241.313 204.462 C 241.242 204.277,240.677 203.264,240.059 202.212 C 237.897 198.537,237.044 197.075,235.092 193.700 C 234.010 191.830,232.077 188.500,230.795 186.300 C 229.514 184.100,228.235 181.895,227.955 181.400 C 227.260 180.175,225.631 177.371,224.005 174.600 C 223.262 173.335,221.981 171.130,221.158 169.700 C 220.336 168.270,216.895 162.330,213.513 156.500 C 210.130 150.670,206.817 144.955,206.149 143.800 C 205.481 142.645,204.666 141.250,204.336 140.700 C 203.793 139.792,202.013 136.731,199.046 131.600 C 198.441 130.555,197.660 129.205,197.308 128.600 C 196.957 127.995,195.649 125.745,194.403 123.600 C 191.486 118.578,189.608 115.341,187.096 111.000 C 185.981 109.075,184.622 106.735,184.074 105.800 C 183.527 104.865,182.192 102.570,181.107 100.700 C 180.023 98.830,178.691 96.535,178.149 95.600 C 177.606 94.665,176.657 93.023,176.039 91.950 C 174.656 89.551,174.763 89.543,173.267 92.150 M81.041 249.550 C 80.828 249.853,79.953 251.360,79.096 252.900 C 77.339 256.058,73.139 263.482,71.402 266.500 C 70.769 267.600,69.059 270.615,67.602 273.200 C 66.145 275.785,64.435 278.800,63.802 279.900 C 63.169 281.000,61.459 284.015,60.002 286.600 C 58.545 289.185,56.835 292.200,56.202 293.300 C 55.568 294.400,53.810 297.505,52.296 300.200 C 50.781 302.895,49.120 305.820,48.604 306.700 C 48.089 307.580,47.139 309.245,46.493 310.400 C 45.848 311.555,44.655 313.668,43.843 315.095 C 42.437 317.568,42.381 317.715,42.659 318.195 C 42.819 318.473,43.733 320.072,44.691 321.750 L 46.432 324.800 179.111 324.800 L 311.790 324.800 311.169 323.750 C 310.827 323.173,310.052 321.845,309.445 320.800 C 308.839 319.755,307.845 318.045,307.237 317.000 C 306.629 315.955,305.830 314.570,305.461 313.923 C 305.093 313.276,304.487 312.241,304.115 311.623 C 303.743 311.005,302.655 309.150,301.698 307.500 C 300.741 305.850,299.481 303.690,298.897 302.700 C 297.382 300.130,292.160 291.169,290.447 288.200 C 290.225 287.815,288.835 285.430,287.358 282.900 C 285.881 280.370,283.335 276.005,281.700 273.200 C 280.065 270.395,277.543 266.075,276.097 263.600 C 273.305 258.824,270.416 253.865,268.698 250.900 L 267.655 249.100 247.528 249.049 C 236.457 249.021,227.400 249.055,227.400 249.125 C 227.400 249.195,227.838 250.028,228.373 250.976 C 229.607 253.164,233.072 259.451,236.101 265.000 C 237.392 267.365,238.697 269.750,239.002 270.300 C 239.306 270.850,240.047 272.200,240.648 273.300 C 241.786 275.380,247.805 286.316,248.821 288.150 L 249.403 289.200 175.423 289.200 L 101.442 289.200 102.645 286.950 C 103.307 285.713,104.139 284.160,104.494 283.500 C 105.746 281.172,110.066 273.076,111.057 271.200 C 111.609 270.155,112.643 268.220,113.355 266.900 C 115.034 263.789,120.870 252.881,121.755 251.200 C 122.131 250.485,122.521 249.814,122.620 249.710 C 123.296 248.997,123.372 249.000,102.114 249.000 L 81.427 249.000 81.041 249.550 " stroke="none" fill="#0404fc" fill-rule="evenodd"></path><path id="path4" d="M192.367 30.972 C 190.313 31.042,188.576 31.158,188.505 31.228 C 188.387 31.347,189.860 33.934,195.495 43.500 C 196.726 45.590,198.172 48.053,198.708 48.972 C 199.885 50.990,198.987 50.735,205.800 50.992 C 217.804 51.445,227.123 52.545,237.200 54.699 C 237.915 54.852,238.861 55.031,239.302 55.098 L 240.105 55.219 242.086 51.719 C 243.177 49.794,244.136 48.260,244.218 48.311 C 244.301 48.362,244.586 48.785,244.853 49.252 C 245.704 50.739,249.847 57.898,249.881 57.940 C 249.898 57.962,250.675 58.156,251.606 58.372 C 252.538 58.588,253.615 58.877,254.000 59.016 C 256.857 60.041,258.531 60.624,260.000 61.107 C 261.979 61.758,269.504 64.692,271.400 65.552 C 272.115 65.876,273.150 66.347,273.700 66.597 C 274.250 66.848,275.285 67.317,276.000 67.640 C 278.113 68.594,285.292 72.254,286.700 73.095 C 287.140 73.357,287.770 73.714,288.100 73.888 C 288.430 74.061,289.040 74.405,289.454 74.651 C 289.869 74.898,290.743 75.390,291.397 75.744 C 295.148 77.780,305.685 84.936,310.000 88.380 C 311.045 89.214,312.396 90.271,313.003 90.730 C 320.455 96.361,334.118 110.155,341.100 119.097 C 342.200 120.506,343.291 121.893,343.525 122.179 C 345.137 124.154,349.533 130.521,352.238 134.800 C 357.623 143.317,364.733 157.179,366.909 163.400 C 367.159 164.115,367.716 165.555,368.146 166.600 C 368.575 167.645,369.314 169.670,369.787 171.100 C 370.260 172.530,370.853 174.240,371.105 174.900 C 372.530 178.633,375.501 190.162,376.820 197.082 C 377.560 200.964,377.608 201.280,378.511 208.300 C 378.681 209.620,378.903 211.240,379.005 211.900 C 379.332 214.006,380.039 226.739,380.049 230.700 C 380.052 232.003,379.589 242.466,379.408 245.176 C 379.141 249.166,378.095 257.617,377.511 260.500 C 377.244 261.820,376.917 263.665,376.785 264.600 C 376.653 265.535,376.107 268.074,375.572 270.243 C 375.038 272.411,374.600 274.358,374.600 274.568 C 374.600 274.779,373.964 277.145,373.186 279.826 C 372.408 282.506,371.694 284.970,371.600 285.300 C 371.505 285.630,371.365 286.103,371.290 286.350 L 371.153 286.800 381.532 286.800 L 391.912 286.800 392.748 284.250 C 393.209 282.848,393.684 281.070,393.804 280.300 C 393.925 279.530,394.456 277.235,394.986 275.200 C 395.516 273.165,396.056 270.735,396.187 269.800 C 396.317 268.865,396.727 266.570,397.096 264.700 C 397.841 260.931,398.952 252.174,399.216 248.000 C 399.309 246.515,399.487 244.040,399.611 242.500 C 400.296 233.963,399.708 214.998,398.504 206.800 C 398.237 204.985,397.961 202.780,397.891 201.900 C 397.820 201.020,397.418 198.590,396.996 196.500 C 396.575 194.410,396.127 191.935,396.002 191.000 C 395.876 190.065,395.378 187.812,394.895 185.994 C 394.412 184.175,393.916 182.035,393.792 181.237 C 393.668 180.440,393.125 178.466,392.584 176.851 C 392.043 175.236,391.600 173.751,391.600 173.550 C 391.600 173.164,389.475 166.532,388.701 164.500 C 388.449 163.840,388.178 163.075,388.098 162.800 C 387.142 159.525,381.806 147.164,378.851 141.383 C 377.778 139.283,376.652 137.055,376.350 136.432 C 375.701 135.096,375.874 135.405,373.111 130.660 C 357.250 103.419,334.191 79.203,308.600 62.908 C 306.895 61.822,304.909 60.548,304.187 60.076 C 303.464 59.604,302.654 59.119,302.387 58.999 C 302.119 58.878,301.540 58.560,301.100 58.291 C 300.660 58.023,300.030 57.659,299.700 57.484 C 298.670 56.937,297.932 56.505,297.000 55.906 C 296.062 55.303,285.646 50.012,283.900 49.253 C 283.350 49.014,282.135 48.466,281.200 48.036 C 278.451 46.772,276.773 46.071,275.600 45.698 C 274.995 45.505,274.405 45.272,274.288 45.181 C 273.818 44.812,261.918 40.483,259.900 39.947 C 259.420 39.820,254.673 38.460,251.200 37.456 C 249.825 37.058,248.340 36.670,247.900 36.593 C 247.460 36.516,246.650 36.342,246.100 36.207 C 241.973 35.193,240.225 34.816,238.600 34.590 C 237.775 34.476,235.525 34.074,233.600 33.698 C 223.284 31.681,205.656 30.515,192.367 30.972 M157.900 35.253 C 157.460 35.364,155.615 35.804,153.800 36.229 C 150.232 37.066,147.429 37.812,143.200 39.049 C 141.715 39.483,140.230 39.912,139.900 40.002 C 139.570 40.091,138.985 40.276,138.600 40.411 C 138.215 40.546,137.585 40.766,137.200 40.900 C 136.815 41.034,136.185 41.253,135.800 41.388 C 135.415 41.522,134.110 41.974,132.900 42.391 C 130.398 43.254,122.704 46.275,120.900 47.103 C 118.932 48.006,117.378 48.707,116.000 49.312 C 113.978 50.201,107.535 53.408,107.200 53.693 C 107.035 53.833,106.315 54.201,105.600 54.509 C 104.885 54.818,104.120 55.217,103.900 55.397 C 103.680 55.577,103.275 55.833,103.000 55.966 C 102.725 56.099,102.140 56.425,101.700 56.690 C 101.260 56.955,100.630 57.314,100.300 57.488 C 99.970 57.661,99.340 58.023,98.900 58.291 C 98.460 58.560,97.888 58.876,97.628 58.993 C 96.806 59.365,88.393 64.815,86.054 66.491 C 84.818 67.376,83.010 68.659,82.036 69.343 C 81.061 70.026,79.098 71.511,77.674 72.643 C 76.250 73.774,74.728 74.968,74.292 75.296 C 71.451 77.435,57.800 89.789,57.800 90.222 C 57.800 90.290,56.900 91.229,55.800 92.310 C 54.700 93.391,53.800 94.354,53.800 94.450 C 53.800 94.547,53.517 94.864,53.172 95.154 C 48.792 98.840,30.645 123.013,28.193 128.428 C 28.076 128.688,27.760 129.260,27.491 129.700 C 27.223 130.140,26.861 130.770,26.688 131.100 C 26.514 131.430,26.155 132.060,25.890 132.500 C 25.625 132.940,25.299 133.525,25.166 133.800 C 25.033 134.075,24.777 134.480,24.597 134.700 C 24.417 134.920,24.018 135.685,23.709 136.400 C 23.401 137.115,23.033 137.835,22.892 138.000 C 22.752 138.165,21.796 140.010,20.768 142.100 C 19.014 145.666,18.436 146.900,17.253 149.600 C 16.988 150.205,16.555 151.163,16.290 151.729 C 15.311 153.820,12.333 161.574,10.820 165.969 C 9.210 170.647,8.881 171.694,7.793 175.600 C 7.441 176.865,6.893 178.765,6.576 179.822 C 6.259 180.879,6.000 181.921,6.000 182.136 C 6.000 182.352,5.505 184.524,4.900 186.964 C 4.295 189.404,3.800 191.674,3.800 192.007 C 3.800 192.341,3.627 193.354,3.416 194.257 C 0.008 208.841,-0.932 238.584,1.502 254.800 C 1.758 256.505,2.029 258.665,2.103 259.600 C 2.178 260.535,2.410 262.046,2.619 262.958 C 2.829 263.870,3.001 264.905,3.002 265.258 C 3.004 265.611,3.139 266.395,3.304 267.000 C 3.469 267.605,3.695 268.730,3.808 269.500 C 3.920 270.270,4.334 272.250,4.728 273.900 C 5.121 275.550,5.574 277.620,5.734 278.500 C 5.893 279.380,6.559 281.824,7.212 283.931 C 7.865 286.038,8.400 287.907,8.400 288.085 C 8.400 288.510,10.502 294.992,11.096 296.400 C 11.352 297.005,11.626 297.815,11.706 298.200 C 11.786 298.585,12.650 300.898,13.626 303.340 C 14.602 305.781,15.400 307.823,15.400 307.876 C 15.400 308.153,19.833 317.683,21.498 320.986 L 23.421 324.800 34.918 324.800 C 46.076 324.800,46.408 324.789,46.214 324.427 C 46.105 324.222,45.013 322.314,43.788 320.188 C 41.531 316.269,39.200 311.835,39.200 311.460 C 39.200 311.347,39.015 311.018,38.788 310.730 C 38.266 310.067,35.353 303.690,33.658 299.500 C 32.946 297.740,32.013 295.445,31.585 294.400 C 31.157 293.355,30.531 291.565,30.193 290.422 C 29.856 289.279,29.404 287.999,29.189 287.578 C 28.974 287.157,28.671 286.337,28.515 285.756 C 28.359 285.175,27.628 282.630,26.891 280.100 C 26.154 277.570,25.437 274.915,25.297 274.200 C 25.158 273.485,24.724 271.550,24.332 269.900 C 22.099 260.479,20.672 249.217,20.163 237.000 C 19.738 226.789,20.429 213.949,21.870 205.300 C 22.145 203.650,22.429 201.715,22.502 201.000 C 22.575 200.285,22.797 199.025,22.996 198.200 C 23.196 197.375,23.414 196.250,23.482 195.700 C 23.550 195.150,23.929 193.350,24.325 191.700 C 24.720 190.050,25.156 188.115,25.294 187.400 C 25.689 185.345,28.010 177.367,29.106 174.300 C 29.459 173.310,30.000 171.735,30.308 170.800 C 31.076 168.463,33.984 161.084,34.981 158.938 C 35.431 157.969,35.800 157.145,35.800 157.107 C 35.800 156.992,37.570 153.179,38.123 152.100 C 38.406 151.550,39.352 149.705,40.227 148.000 C 41.101 146.295,42.032 144.540,42.295 144.100 C 42.557 143.660,42.914 143.030,43.088 142.700 C 43.261 142.370,43.623 141.740,43.891 141.300 C 44.160 140.860,44.477 140.283,44.597 140.019 C 44.716 139.754,45.063 139.169,45.366 138.719 C 45.670 138.268,45.971 137.765,46.034 137.600 C 46.568 136.213,54.554 124.594,57.580 120.800 C 58.414 119.755,59.471 118.405,59.928 117.800 C 65.865 109.950,78.830 97.155,88.768 89.340 C 94.962 84.468,106.271 76.770,109.291 75.369 C 109.516 75.265,110.060 74.960,110.500 74.691 C 110.940 74.423,111.570 74.061,111.900 73.888 C 112.230 73.714,112.860 73.358,113.300 73.095 C 113.740 72.832,115.585 71.858,117.400 70.929 C 119.215 70.001,121.060 69.051,121.500 68.819 C 122.403 68.343,126.179 66.600,126.308 66.600 C 126.354 66.600,127.182 66.229,128.146 65.776 C 130.660 64.594,135.867 62.566,140.498 60.965 C 145.555 59.217,144.900 59.788,147.948 54.468 C 149.388 51.956,151.034 49.090,151.606 48.100 C 152.591 46.396,156.140 40.248,158.215 36.650 C 158.739 35.742,159.062 35.011,158.933 35.025 C 158.805 35.039,158.340 35.142,157.900 35.253 M21.507 330.250 C 21.382 330.638,2.395 452.055,2.398 452.451 C 2.400 452.784,3.425 452.799,21.950 452.751 L 41.500 452.700 42.634 441.800 C 43.257 435.805,43.775 430.877,43.784 430.850 C 43.793 430.823,46.766 430.800,50.391 430.800 L 56.982 430.800 57.086 431.450 C 57.203 432.188,59.002 451.912,59.001 452.450 C 59.000 452.781,60.057 452.800,78.400 452.800 C 89.070 452.800,97.800 452.773,97.800 452.739 C 97.800 452.594,76.397 330.856,76.300 330.450 L 76.192 330.000 48.890 330.000 C 27.224 330.000,21.571 330.052,21.507 330.250 M99.400 391.382 L 99.400 452.800 126.250 452.798 C 152.920 452.796,158.239 452.695,163.600 452.086 C 176.721 450.595,183.900 445.347,185.704 435.930 C 186.847 429.964,187.066 421.558,186.939 388.500 C 186.806 353.705,186.581 350.330,184.072 345.342 C 179.695 336.646,171.259 332.261,156.300 330.909 C 148.859 330.236,145.502 330.151,122.650 330.058 L 99.400 329.964 99.400 391.382 M196.200 391.400 L 196.200 452.800 221.850 452.799 C 252.305 452.797,259.564 452.569,266.504 451.395 C 276.504 449.704,281.646 444.483,283.375 434.264 C 284.689 426.495,284.473 407.859,283.002 402.110 C 280.896 393.873,275.419 389.417,264.325 386.914 L 262.349 386.468 264.725 385.908 C 278.421 382.678,281.701 378.102,281.342 362.720 C 281.002 348.117,277.265 340.420,267.900 335.031 C 260.451 330.745,253.145 330.000,218.550 330.000 L 196.200 330.000 196.200 391.400 M301.389 372.550 C 301.375 428.510,301.449 426.590,299.232 428.793 C 297.095 430.917,294.962 431.509,290.150 431.315 L 287.000 431.188 287.000 442.013 L 287.000 452.838 301.150 452.740 C 315.733 452.639,317.789 452.538,322.400 451.692 C 332.175 449.900,337.974 444.024,338.840 435.030 C 338.972 433.665,339.078 414.429,339.134 381.450 L 339.223 330.000 320.311 330.000 L 301.400 330.000 301.389 372.550 M357.395 376.150 C 357.392 404.433,357.315 423.073,357.196 424.296 C 356.682 429.581,353.383 431.659,346.050 431.319 L 343.200 431.187 343.200 441.993 L 343.200 452.800 355.050 452.798 C 381.244 452.794,387.342 451.186,392.493 442.922 C 395.403 438.253,395.386 438.649,395.394 373.750 L 395.400 330.000 376.400 330.000 L 357.400 330.000 357.395 376.150 M142.169 351.408 C 147.036 352.018,148.388 353.622,148.815 359.292 C 149.193 364.323,148.955 421.184,148.544 423.882 C 147.645 429.782,146.059 431.134,139.576 431.528 L 137.400 431.660 137.400 391.430 L 137.400 351.200 138.955 351.200 C 139.811 351.200,141.257 351.294,142.169 351.408 M240.800 351.613 C 244.902 352.495,246.201 355.396,246.199 363.676 C 246.197 376.569,245.069 378.200,236.155 378.200 L 234.000 378.200 234.000 364.669 L 234.000 351.139 236.850 351.258 C 238.418 351.323,240.195 351.483,240.800 351.613 M51.410 368.826 C 52.851 383.187,55.333 404.789,55.929 408.150 L 56.045 408.800 49.722 408.800 L 43.400 408.800 43.402 408.050 C 43.409 405.026,46.239 384.269,49.100 366.258 C 49.705 362.447,50.200 359.195,50.200 359.031 C 50.200 358.867,50.249 358.783,50.310 358.843 C 50.370 358.903,50.865 363.396,51.410 368.826 M239.200 397.893 C 246.009 398.819,246.100 399.036,246.100 414.300 C 246.100 430.345,245.809 430.839,235.950 431.524 L 234.000 431.659 234.000 414.630 L 234.000 397.600 235.550 397.604 C 236.403 397.606,238.045 397.736,239.200 397.893 " stroke="none" fill="#040404" fill-rule="evenodd"></path></g></svg>